<mxfile host="65bd71144e">
    <diagram id="WOgaOO_Aj3YdX5mx3ULF" name="Page-1">
        <mxGraphModel dx="1069" dy="810" grid="1" gridSize="10" guides="1" tooltips="1" connect="1" arrows="1" fold="1" page="1" pageScale="1" pageWidth="850" pageHeight="1100" math="0" shadow="0">
            <root>
                <mxCell id="0"/>
                <mxCell id="1" parent="0"/>
                <mxCell id="2" value="" style="whiteSpace=wrap;html=1;" parent="1" vertex="1">
                    <mxGeometry x="30" y="30" width="530" height="880" as="geometry"/>
                </mxCell>
                <mxCell id="3" value="APP" style="text;html=1;resizable=0;autosize=1;align=center;verticalAlign=middle;points=[];fillColor=none;strokeColor=none;rounded=0;" parent="1" vertex="1">
                    <mxGeometry x="275" y="40" width="40" height="20" as="geometry"/>
                </mxCell>
                <mxCell id="4" value="" style="whiteSpace=wrap;html=1;" parent="1" vertex="1">
                    <mxGeometry x="50" y="80" width="490" height="60" as="geometry"/>
                </mxCell>
                <mxCell id="5" value="HEADER" style="text;html=1;resizable=0;autosize=1;align=center;verticalAlign=middle;points=[];fillColor=none;strokeColor=none;rounded=0;" parent="1" vertex="1">
                    <mxGeometry x="260" y="100" width="70" height="20" as="geometry"/>
                </mxCell>
                <mxCell id="6" value="" style="whiteSpace=wrap;html=1;" parent="1" vertex="1">
                    <mxGeometry x="50" y="290" width="490" height="600" as="geometry"/>
                </mxCell>
                <mxCell id="8" value="" style="whiteSpace=wrap;html=1;" parent="1" vertex="1">
                    <mxGeometry x="50" y="150" width="490" height="130" as="geometry"/>
                </mxCell>
                <mxCell id="9" value="Main Image" style="text;html=1;resizable=0;autosize=1;align=center;verticalAlign=middle;points=[];fillColor=none;strokeColor=none;rounded=0;" parent="1" vertex="1">
                    <mxGeometry x="255" y="170" width="80" height="20" as="geometry"/>
                </mxCell>
                <mxCell id="10" value="Workout Controller" style="text;html=1;resizable=0;autosize=1;align=center;verticalAlign=middle;points=[];fillColor=none;strokeColor=none;rounded=0;" parent="1" vertex="1">
                    <mxGeometry x="235" y="300" width="120" height="20" as="geometry"/>
                </mxCell>
                <mxCell id="46" value="" style="edgeStyle=none;shape=flexArrow;html=1;entryX=0.5;entryY=0;entryDx=0;entryDy=0;" parent="1" source="11" target="13" edge="1">
                    <mxGeometry relative="1" as="geometry">
                        <mxPoint x="-195" y="440" as="targetPoint"/>
                    </mxGeometry>
                </mxCell>
                <mxCell id="11" value="" style="whiteSpace=wrap;html=1;" parent="1" vertex="1">
                    <mxGeometry x="70" y="330" width="450" height="220" as="geometry"/>
                </mxCell>
                <mxCell id="12" value="Workout Form" style="text;html=1;resizable=0;autosize=1;align=center;verticalAlign=middle;points=[];fillColor=none;strokeColor=none;rounded=0;" parent="1" vertex="1">
                    <mxGeometry x="250" y="340" width="90" height="20" as="geometry"/>
                </mxCell>
                <mxCell id="47" value="" style="edgeStyle=none;shape=flexArrow;html=1;entryX=0.5;entryY=0;entryDx=0;entryDy=0;" parent="1" source="13" target="15" edge="1">
                    <mxGeometry relative="1" as="geometry"/>
                </mxCell>
                <mxCell id="13" value="" style="whiteSpace=wrap;html=1;" parent="1" vertex="1">
                    <mxGeometry x="70" y="595" width="450" height="130" as="geometry"/>
                </mxCell>
                <mxCell id="14" value="Items Form: Checkboxes" style="text;html=1;resizable=0;autosize=1;align=center;verticalAlign=middle;points=[];fillColor=none;strokeColor=none;rounded=0;" parent="1" vertex="1">
                    <mxGeometry x="220" y="605" width="150" height="20" as="geometry"/>
                </mxCell>
                <mxCell id="15" value="" style="whiteSpace=wrap;html=1;" parent="1" vertex="1">
                    <mxGeometry x="70" y="780" width="450" height="90" as="geometry"/>
                </mxCell>
                <mxCell id="16" value="Final Exercise List" style="text;html=1;resizable=0;autosize=1;align=center;verticalAlign=middle;points=[];fillColor=none;strokeColor=none;rounded=0;" parent="1" vertex="1">
                    <mxGeometry x="240" y="790" width="110" height="20" as="geometry"/>
                </mxCell>
                <mxCell id="17" value="" style="whiteSpace=wrap;html=1;" parent="1" vertex="1">
                    <mxGeometry x="80" y="635" width="100" height="40" as="geometry"/>
                </mxCell>
                <mxCell id="18" value="Individual &lt;br&gt;Exercise" style="text;html=1;resizable=0;autosize=1;align=center;verticalAlign=middle;points=[];fillColor=none;strokeColor=none;rounded=0;" parent="1" vertex="1">
                    <mxGeometry x="95" y="640" width="70" height="30" as="geometry"/>
                </mxCell>
                <mxCell id="19" value="" style="whiteSpace=wrap;html=1;" parent="1" vertex="1">
                    <mxGeometry x="190" y="635" width="100" height="40" as="geometry"/>
                </mxCell>
                <mxCell id="20" value="" style="whiteSpace=wrap;html=1;" parent="1" vertex="1">
                    <mxGeometry x="300" y="635" width="100" height="40" as="geometry"/>
                </mxCell>
                <mxCell id="21" value="" style="whiteSpace=wrap;html=1;" parent="1" vertex="1">
                    <mxGeometry x="410" y="635" width="100" height="40" as="geometry"/>
                </mxCell>
                <mxCell id="22" value="Individual &lt;br&gt;Exercise" style="text;html=1;resizable=0;autosize=1;align=center;verticalAlign=middle;points=[];fillColor=none;strokeColor=none;rounded=0;" parent="1" vertex="1">
                    <mxGeometry x="205" y="640" width="70" height="30" as="geometry"/>
                </mxCell>
                <mxCell id="23" value="Individual &lt;br&gt;Exercise" style="text;html=1;resizable=0;autosize=1;align=center;verticalAlign=middle;points=[];fillColor=none;strokeColor=none;rounded=0;" parent="1" vertex="1">
                    <mxGeometry x="315" y="640" width="70" height="30" as="geometry"/>
                </mxCell>
                <mxCell id="24" value="Individual &lt;br&gt;Exercise" style="text;html=1;resizable=0;autosize=1;align=center;verticalAlign=middle;points=[];fillColor=none;strokeColor=none;rounded=0;" parent="1" vertex="1">
                    <mxGeometry x="430" y="640" width="70" height="30" as="geometry"/>
                </mxCell>
                <mxCell id="25" value="" style="whiteSpace=wrap;html=1;" parent="1" vertex="1">
                    <mxGeometry x="80" y="820" width="100" height="40" as="geometry"/>
                </mxCell>
                <mxCell id="26" value="Individual &lt;br&gt;Exercise" style="text;html=1;resizable=0;autosize=1;align=center;verticalAlign=middle;points=[];fillColor=none;strokeColor=none;rounded=0;" parent="1" vertex="1">
                    <mxGeometry x="95" y="825" width="70" height="30" as="geometry"/>
                </mxCell>
                <mxCell id="27" value="" style="whiteSpace=wrap;html=1;" parent="1" vertex="1">
                    <mxGeometry x="190" y="820" width="100" height="40" as="geometry"/>
                </mxCell>
                <mxCell id="28" value="" style="whiteSpace=wrap;html=1;" parent="1" vertex="1">
                    <mxGeometry x="300" y="820" width="100" height="40" as="geometry"/>
                </mxCell>
                <mxCell id="29" value="" style="whiteSpace=wrap;html=1;" parent="1" vertex="1">
                    <mxGeometry x="410" y="820" width="100" height="40" as="geometry"/>
                </mxCell>
                <mxCell id="30" value="Individual &lt;br&gt;Exercise" style="text;html=1;resizable=0;autosize=1;align=center;verticalAlign=middle;points=[];fillColor=none;strokeColor=none;rounded=0;" parent="1" vertex="1">
                    <mxGeometry x="205" y="825" width="70" height="30" as="geometry"/>
                </mxCell>
                <mxCell id="31" value="Individual &lt;br&gt;Exercise" style="text;html=1;resizable=0;autosize=1;align=center;verticalAlign=middle;points=[];fillColor=none;strokeColor=none;rounded=0;" parent="1" vertex="1">
                    <mxGeometry x="315" y="825" width="70" height="30" as="geometry"/>
                </mxCell>
                <mxCell id="32" value="Individual &lt;br&gt;Exercise" style="text;html=1;resizable=0;autosize=1;align=center;verticalAlign=middle;points=[];fillColor=none;strokeColor=none;rounded=0;" parent="1" vertex="1">
                    <mxGeometry x="430" y="825" width="70" height="30" as="geometry"/>
                </mxCell>
                <mxCell id="33" value="" style="whiteSpace=wrap;html=1;" parent="1" vertex="1">
                    <mxGeometry x="240" y="685" width="100" height="30" as="geometry"/>
                </mxCell>
                <mxCell id="34" value="Submit" style="text;html=1;resizable=0;autosize=1;align=center;verticalAlign=middle;points=[];fillColor=none;strokeColor=none;rounded=0;" parent="1" vertex="1">
                    <mxGeometry x="265" y="690" width="50" height="20" as="geometry"/>
                </mxCell>
                <mxCell id="35" value="" style="whiteSpace=wrap;html=1;" parent="1" vertex="1">
                    <mxGeometry x="120" y="370" width="100" height="120" as="geometry"/>
                </mxCell>
                <mxCell id="42" value="" style="edgeStyle=none;html=1;" parent="1" source="36" target="41" edge="1">
                    <mxGeometry relative="1" as="geometry"/>
                </mxCell>
                <mxCell id="36" value="Target Body &lt;br&gt;Part(s):&lt;br&gt;&lt;br&gt;[ ] Legs&lt;br&gt;[ ] glutes&lt;br&gt;[ ] arms&lt;br&gt;[ ] etc" style="text;html=1;resizable=0;autosize=1;align=center;verticalAlign=middle;points=[];fillColor=none;strokeColor=none;rounded=0;" parent="1" vertex="1">
                    <mxGeometry x="130" y="380" width="80" height="100" as="geometry"/>
                </mxCell>
                <mxCell id="37" value="" style="whiteSpace=wrap;html=1;" parent="1" vertex="1">
                    <mxGeometry x="240" y="500" width="100" height="30" as="geometry"/>
                </mxCell>
                <mxCell id="38" value="Submit" style="text;html=1;resizable=0;autosize=1;align=center;verticalAlign=middle;points=[];fillColor=none;strokeColor=none;rounded=0;" parent="1" vertex="1">
                    <mxGeometry x="265" y="505" width="50" height="20" as="geometry"/>
                </mxCell>
                <mxCell id="40" value="" style="whiteSpace=wrap;html=1;" parent="1" vertex="1">
                    <mxGeometry x="240" y="370" width="100" height="120" as="geometry"/>
                </mxCell>
                <mxCell id="41" value="Muscle Groups:&lt;br&gt;&lt;br&gt;[ ]&amp;nbsp;&lt;span style=&quot;color: rgb(4 , 81 , 165) ; background-color: rgb(255 , 255 , 254)&quot;&gt;Soleus&lt;/span&gt;&lt;br&gt;[ ]&amp;nbsp;&lt;span style=&quot;color: rgb(4 , 81 , 165) ; background-color: rgb(255 , 255 , 254)&quot;&gt;Trapezius&lt;/span&gt;&lt;br&gt;[ ]&amp;nbsp;&lt;span style=&quot;color: rgb(4 , 81 , 165) ; background-color: rgb(255 , 255 , 254)&quot;&gt;Triceps&lt;/span&gt;&lt;br&gt;[ ] etc" style="text;html=1;resizable=0;autosize=1;align=center;verticalAlign=middle;points=[];fillColor=none;strokeColor=none;rounded=0;" parent="1" vertex="1">
                    <mxGeometry x="240" y="385" width="100" height="90" as="geometry"/>
                </mxCell>
                <mxCell id="43" value="" style="whiteSpace=wrap;html=1;" parent="1" vertex="1">
                    <mxGeometry x="360" y="370" width="100" height="120" as="geometry"/>
                </mxCell>
                <mxCell id="44" value="Equipment:&lt;br&gt;&lt;br&gt;[ ] &lt;font color=&quot;#0451a5&quot;&gt;&lt;span style=&quot;background-color: rgb(255 , 255 , 254)&quot;&gt;Bodyweight&lt;br&gt;&lt;/span&gt;&lt;/font&gt;[ ]&amp;nbsp;&lt;span style=&quot;color: rgb(4 , 81 , 165) ; background-color: rgb(255 , 255 , 254)&quot;&gt;dumbells&lt;/span&gt;&lt;br&gt;[ ]&amp;nbsp;&lt;span style=&quot;color: rgb(4 , 81 , 165) ; background-color: rgb(255 , 255 , 254)&quot;&gt;kettlebell&lt;/span&gt;&lt;br&gt;[ ] etc" style="text;html=1;resizable=0;autosize=1;align=center;verticalAlign=middle;points=[];fillColor=none;strokeColor=none;rounded=0;" parent="1" vertex="1">
                    <mxGeometry x="365" y="385" width="90" height="90" as="geometry"/>
                </mxCell>
            </root>
        </mxGraphModel>
    </diagram>
</mxfile>